# xmcd
#
# Track frame offsets: 
#        150
#        17797
#        35435
#        52270
#        61667
#        77175
#        95480
#        117457
#        142082
#        161627
#        177567
#        198677
#        218912
#        233705
#        252267
#        270540
#        285887
#        307002
#
# Disc length: 4310 seconds
#
# Revision: 1
# Processed by: cddbd v1.5.2PL0 Copyright (c) Steve Scherf et al.
# Submitted via: ExactAudioCopy v0.99pb5
#
DISCID=0d10d412
DTITLE=Various Artist - Smooth Soul Classics [CD1)
DYEAR=2001
DGENRE=Soul
TTITLE0=What's Going On - Marvin Gaye
TTITLE1=Harvest For The World - The Isley Brothers
TTITLE2=Take Me To The River - Al Green
TTITLE3=Ain't No Sunshine - Bill Withers
TTITLE4=Until You Come Back To Me (That's What I'm Gonna Do) - Aretha 
TTITLE4=Franklin
TTITLE5=Just To See Her - Smokey Robinson
TTITLE6=Wishing On A Star - Rose Royce
TTITLE7=Close The Door - Teddy Pendergrass
TTITLE8=Easy - The Commodores
TTITLE9=Tonight, I Celebrate My Love - Peabo Bryson and Roberta Flack
TTITLE10=Shining Star - The Manhattans
TTITLE11=If You're loooking For A Way Out - Odyssey
TTITLE12=Walk Away from Love - David Ruffin
TTITLE13=Shake You Down - Gregory Abbott
TTITLE14=Use Ta Be My Girl - O'Jays
TTITLE15=So Good, So Right - Brenda Russel;
TTITLE16=Touch A Four Leaf Clover - Atlantic Starr
TTITLE17=Baby, Come To Me - Patti Austin and James Ingram
EXTD=
EXTT0=
EXTT1=
EXTT2=
EXTT3=
EXTT4=
EXTT5=
EXTT6=
EXTT7=
EXTT8=
EXTT9=
EXTT10=
EXTT11=
EXTT12=
EXTT13=
EXTT14=
EXTT15=
EXTT16=
EXTT17=
PLAYORDER=
